<svg width="235" height="79" viewBox="0 0 235 79" fill="none" xmlns="http://www.w3.org/2000/svg">
<g clip-path="url(#clip0)">
<path d="M94.3679 10.3646L94.5605 12.9339C96.2011 10.9379 98.4196 9.93994 101.216 9.93994C104.198 9.93994 106.245 11.1078 107.358 13.4435C108.984 11.1078 111.302 9.93994 114.313 9.93994C116.824 9.93994 118.692 10.669 119.919 12.127C121.146 13.5709 121.76 15.7508 121.76 18.6669V33.3393H115.554V18.6882C115.554 17.3858 115.297 16.4374 114.783 15.8429C114.27 15.2342 113.364 14.9298 112.066 14.9298C110.211 14.9298 108.927 15.8075 108.214 17.5628L108.235 33.3393H102.05V18.7094C102.05 17.3787 101.787 16.4162 101.259 15.8216C100.731 15.2271 99.832 14.9298 98.5623 14.9298C96.8075 14.9298 95.5377 15.6518 94.7531 17.0956V33.3393H88.5685V10.3646H94.3679Z" fill="white"/>
<path d="M139.819 33.7639C136.423 33.7639 133.656 32.7306 131.516 30.6639C129.39 28.5971 128.327 25.8438 128.327 22.404V21.8095C128.327 19.5021 128.776 17.4425 129.675 15.6305C130.574 13.8044 131.844 12.403 133.484 11.4263C135.139 10.4354 137.023 9.93994 139.134 9.93994C142.301 9.93994 144.791 10.9308 146.603 12.9126C148.429 14.8944 149.342 17.7043 149.342 21.3423V23.8479H134.597C134.797 25.3484 135.396 26.5516 136.395 27.4576C137.408 28.3636 138.685 28.8165 140.225 28.8165C142.608 28.8165 144.47 27.9601 145.811 26.2473L148.85 29.6234C147.922 30.9257 146.667 31.9449 145.083 32.681C143.5 33.403 141.745 33.7639 139.819 33.7639ZM139.113 14.9086C137.886 14.9086 136.887 15.3191 136.117 16.1401C135.36 16.9612 134.875 18.1361 134.661 19.6649H143.264V19.1765C143.236 17.8176 142.865 16.7701 142.151 16.034C141.438 15.2837 140.425 14.9086 139.113 14.9086Z" fill="white"/>
<path d="M154.604 21.6821C154.604 18.1573 155.445 15.3191 157.129 13.1674C158.826 11.0158 161.109 9.93994 163.977 9.93994C166.516 9.93994 168.492 10.8034 169.905 12.5304L170.161 10.3646H175.768V32.5749C175.768 34.585 175.304 36.3332 174.377 37.8195C173.464 39.3059 172.173 40.4383 170.504 41.2169C168.835 41.9955 166.88 42.3848 164.64 42.3848C162.942 42.3848 161.287 42.045 159.675 41.3655C158.063 40.7002 156.843 39.8367 156.016 38.7751L158.755 35.038C160.296 36.7508 162.165 37.6072 164.362 37.6072C166.003 37.6072 167.279 37.1684 168.193 36.2907C169.106 35.4272 169.562 34.1957 169.562 32.5961V31.3646C168.135 32.9642 166.259 33.7639 163.934 33.7639C161.152 33.7639 158.898 32.6881 157.172 30.5365C155.46 28.3706 154.604 25.5041 154.604 21.9369V21.6821ZM160.788 22.128C160.788 24.2089 161.209 25.8438 162.051 27.0329C162.892 28.2078 164.048 28.7953 165.518 28.7953C167.401 28.7953 168.749 28.0946 169.562 26.6932V17.0319C168.735 15.6305 167.401 14.9298 165.56 14.9298C164.077 14.9298 162.907 15.5314 162.051 16.7347C161.209 17.9379 160.788 19.7357 160.788 22.128Z" fill="white"/>
<path d="M196.588 33.3393C196.302 32.7872 196.095 32.1007 195.967 31.2796C194.469 32.9358 192.522 33.7639 190.125 33.7639C187.857 33.7639 185.973 33.1128 184.475 31.8105C182.992 30.5081 182.25 28.8661 182.25 26.8843C182.25 24.4495 183.156 22.581 184.968 21.2786C186.794 19.9763 189.426 19.3181 192.864 19.3039H195.71V17.9874C195.71 16.9258 195.432 16.0764 194.876 15.4394C194.334 14.8024 193.47 14.4839 192.286 14.4839C191.245 14.4839 190.425 14.7316 189.825 15.2271C189.24 15.7225 188.948 16.402 188.948 17.2655H182.763C182.763 15.9349 183.177 14.7033 184.005 13.5709C184.832 12.4384 186.002 11.5537 187.514 10.9167C189.026 10.2655 190.724 9.93994 192.607 9.93994C195.461 9.93994 197.722 10.6548 199.391 12.0845C201.075 13.5001 201.916 15.496 201.916 18.0724V28.0309C201.931 30.2109 202.237 31.86 202.836 32.9783V33.3393H196.588ZM191.473 29.0713C192.386 29.0713 193.228 28.8732 193.998 28.4768C194.769 28.0663 195.339 27.5213 195.71 26.8418V22.8924H193.399C190.303 22.8924 188.655 23.9541 188.456 26.0774L188.434 26.4384C188.434 27.2028 188.705 27.8327 189.248 28.3282C189.79 28.8236 190.532 29.0713 191.473 29.0713Z" fill="white"/>
<path d="M98.9178 62.5044C98.9178 61.7542 98.5397 61.1667 97.7836 60.742C97.0417 60.3032 95.8433 59.9139 94.1884 59.5742C88.6815 58.4276 85.928 56.1061 85.928 52.6096C85.928 50.5712 86.7769 48.8725 88.4746 47.5136C90.1866 46.1405 92.4194 45.4539 95.1728 45.4539C98.1117 45.4539 100.459 46.1405 102.213 47.5136C103.982 48.8867 104.867 50.6703 104.867 52.8644H98.6824C98.6824 51.9868 98.3971 51.2648 97.8264 50.6986C97.2557 50.1182 96.3641 49.828 95.1514 49.828C94.1099 49.828 93.3039 50.0616 92.7332 50.5287C92.1626 50.9959 91.8772 51.5904 91.8772 52.3123C91.8772 52.9918 92.1982 53.5439 92.8402 53.9686C93.4965 54.3791 94.595 54.74 96.1358 55.0515C97.6766 55.3487 98.9749 55.6885 100.031 56.0707C103.298 57.2597 104.931 59.3194 104.931 62.2496C104.931 64.3447 104.025 66.0433 102.213 67.3457C100.402 68.6338 98.0618 69.2779 95.1942 69.2779C93.254 69.2779 91.5277 68.9382 90.0154 68.2587C88.5174 67.5651 87.3404 66.6237 86.4844 65.4346C85.6284 64.2314 85.2004 62.9362 85.2004 61.5489H91.064C91.1211 62.6389 91.5277 63.4741 92.2838 64.0545C93.04 64.6349 94.0529 64.925 95.3226 64.925C96.5067 64.925 97.3984 64.7056 97.9976 64.2668C98.6111 63.8138 98.9178 63.2264 98.9178 62.5044Z" fill="white"/>
<path d="M122.8 66.5176C121.274 68.3578 119.162 69.2779 116.466 69.2779C113.983 69.2779 112.086 68.5701 110.773 67.1546C109.475 65.739 108.812 63.6652 108.783 60.9331V45.8786H114.968V60.7208C114.968 63.1131 116.066 64.3093 118.263 64.3093C120.361 64.3093 121.801 63.5873 122.586 62.1435V45.8786H128.792V68.8532H122.971L122.8 66.5176Z" fill="white"/>
<path d="M154.301 57.5782C154.301 61.1172 153.488 63.9554 151.861 66.0929C150.249 68.2162 148.066 69.2779 145.313 69.2779C142.973 69.2779 141.083 68.471 139.642 66.8573V77.6864H133.457V45.8786H139.192L139.406 48.1293C140.904 46.3457 142.859 45.4539 145.27 45.4539C148.123 45.4539 150.342 46.5014 151.925 48.5965C153.509 50.6915 154.301 53.5793 154.301 57.2597V57.5782ZM148.116 57.1323C148.116 54.9948 147.731 53.3457 146.961 52.1849C146.205 51.0242 145.099 50.4438 143.644 50.4438C141.703 50.4438 140.369 51.1799 139.642 52.6521V62.0585C140.398 63.5732 141.746 64.3305 143.686 64.3305C146.64 64.3305 148.116 61.9311 148.116 57.1323Z" fill="white"/>
<path d="M157.19 57.1536C157.19 54.8745 157.632 52.8432 158.517 51.0596C159.401 49.2759 160.671 47.8958 162.326 46.919C163.995 45.9423 165.928 45.4539 168.125 45.4539C171.25 45.4539 173.796 46.4023 175.765 48.2992C177.748 50.1961 178.854 52.7724 179.082 56.0282L179.125 57.5995C179.125 61.1242 178.133 63.9554 176.15 66.0929C174.167 68.2162 171.506 69.2779 168.168 69.2779C164.83 69.2779 162.162 68.2162 160.164 66.0929C158.181 63.9695 157.19 61.0818 157.19 57.4296V57.1536ZM163.374 57.5995C163.374 59.7795 163.788 61.4498 164.616 62.6106C165.443 63.7572 166.627 64.3305 168.168 64.3305C169.666 64.3305 170.836 63.7643 171.678 62.6318C172.519 61.4852 172.94 59.6591 172.94 57.1536C172.94 55.0161 172.519 53.3599 171.678 52.1849C170.836 51.01 169.652 50.4226 168.125 50.4226C166.613 50.4226 165.443 51.01 164.616 52.1849C163.788 53.3457 163.374 55.1506 163.374 57.5995Z" fill="white"/>
<path d="M195.945 51.6329C195.103 51.5196 194.362 51.463 193.72 51.463C191.38 51.463 189.846 52.2486 189.119 53.8199V68.8532H182.934V45.8786H188.776L188.947 48.6177C190.189 46.5085 191.908 45.4539 194.105 45.4539C194.79 45.4539 195.432 45.5459 196.031 45.7299L195.945 51.6329Z" fill="white"/>
<path d="M207.416 40.2305V45.8786H211.375V50.3801H207.416V61.8462C207.416 62.6955 207.58 63.3042 207.908 63.6723C208.236 64.0403 208.864 64.2243 209.791 64.2243C210.476 64.2243 211.082 64.1748 211.61 64.0757V68.7258C210.397 69.0939 209.149 69.2779 207.865 69.2779C203.528 69.2779 201.317 67.105 201.231 62.7592V50.3801H197.85V45.8786H201.231V40.2305H207.416Z" fill="white"/>
<path d="M225.477 69.2779C222.082 69.2779 219.314 68.2446 217.174 66.1778C215.048 64.1111 213.985 61.3578 213.985 57.918V57.3234C213.985 55.0161 214.435 52.9564 215.333 51.1445C216.232 49.3184 217.502 47.917 219.143 46.9403C220.798 45.9494 222.681 45.4539 224.792 45.4539C227.959 45.4539 230.449 46.4448 232.261 48.4266C234.087 50.4084 235 53.2183 235 56.8563V59.3619H220.255C220.455 60.8624 221.054 62.0656 222.053 62.9716C223.066 63.8775 224.343 64.3305 225.884 64.3305C228.266 64.3305 230.128 63.4741 231.469 61.7613L234.508 65.1374C233.581 66.4397 232.325 67.4589 230.741 68.195C229.158 68.9169 227.403 69.2779 225.477 69.2779ZM224.771 50.4226C223.544 50.4226 222.545 50.8331 221.775 51.6541C221.019 52.4751 220.534 53.65 220.32 55.1789H228.922V54.6905C228.894 53.3315 228.523 52.284 227.81 51.5479C227.096 50.7977 226.083 50.4226 224.771 50.4226Z" fill="white"/>
<path d="M65.282 27.9038H45.6535L47.8448 30.8029H64.0565C64.9455 30.8029 65.6284 31.5842 65.5027 32.4574L63.7287 44.7785C63.6259 45.4926 63.0095 46.0231 62.2825 46.0231H48.5753L47.1144 49.2845H50.7666L44.5483 53.7718C43.9762 54.1846 44.2705 55.0827 44.9779 55.0827H59.5163C60.1778 55.0827 60.4986 54.28 60.0169 53.8302L55.1493 49.2845H63.592C65.4427 49.2845 67.0008 47.9111 67.2188 46.0876L68.9088 31.9546C69.1665 29.7991 67.4696 27.9038 65.282 27.9038Z" fill="white"/>
<path fill-rule="evenodd" clip-rule="evenodd" d="M35.5831 41.4773C36.4146 40.1022 36.1788 38.712 35.5426 37.4494L37.5026 36.4771C38.3273 38.1136 38.822 40.3472 37.4621 42.596L35.5831 41.4773Z" fill="white"/>
<path fill-rule="evenodd" clip-rule="evenodd" d="M39.2166 44.4085C41.2998 40.6811 40.6402 36.9302 39.1802 33.7954L41.1694 32.8833C42.7957 36.375 43.6792 40.9072 41.133 45.4629L39.2166 44.4085Z" fill="white"/>
<path fill-rule="evenodd" clip-rule="evenodd" d="M42.8522 48.0643C46.1225 41.7255 45.0616 35.3568 42.8197 30.1422L44.8353 29.2891C47.2229 34.8425 48.4768 41.9338 44.8028 49.0551L42.8522 48.0643Z" fill="white"/>
<path fill-rule="evenodd" clip-rule="evenodd" d="M27.027 27.1791C27.027 28.9803 25.5554 30.4406 23.7399 30.4406C21.9245 30.4406 20.4529 28.9803 20.4529 27.1791C20.4529 25.3779 21.9245 23.9176 23.7399 23.9176C25.5554 23.9176 27.027 25.3779 27.027 27.1791ZM26.2758 32.804C28.4406 31.8417 29.9488 29.6852 29.9488 27.1791C29.9488 23.7767 27.1689 21.0186 23.7399 21.0186C20.311 21.0186 17.5311 23.7767 17.5311 27.1791C17.5311 29.8191 19.2048 32.0713 21.5568 32.948L15.0532 38.7864L13.1596 53.8158C13.0858 54.402 13.3779 54.974 13.8978 55.2617C14.4178 55.5493 15.0616 55.4952 15.5254 55.1249L30.4997 43.1662L28.6676 40.9077L16.5069 50.6194L17.8179 40.214L24.016 34.6499L27.7826 38.6747L29.9236 36.702L26.2758 32.804Z" fill="white"/>
<path d="M34.3309 39.5001C34.3309 40.9011 33.1863 42.0368 31.7744 42.0368C30.3624 42.0368 29.2178 40.9011 29.2178 39.5001C29.2178 38.0991 30.3624 36.9634 31.7744 36.9634C33.1863 36.9634 34.3309 38.0991 34.3309 39.5001Z" fill="white"/>
<path fill-rule="evenodd" clip-rule="evenodd" d="M56.9752 3.62385H21.9135C11.8281 3.62385 3.65226 11.7361 3.65226 21.7431V57.2569C3.65226 67.2639 11.8281 75.3761 21.9135 75.3761H56.9752C67.0606 75.3761 75.2365 67.2639 75.2365 57.2569V21.7431C75.2365 11.7361 67.0606 3.62385 56.9752 3.62385ZM21.9135 0C9.81103 0 0 9.73473 0 21.7431V57.2569C0 69.2653 9.81103 79 21.9135 79H56.9752C69.0777 79 78.8887 69.2653 78.8887 57.2569V21.7431C78.8887 9.73473 69.0777 0 56.9752 0H21.9135Z" fill="white"/>
</g>
<defs>
<clipPath id="clip0">
<rect width="235" height="79" fill="white"/>
</clipPath>
</defs>
</svg>
