<svg width="168" height="311" viewBox="0 0 168 311" fill="none" xmlns="http://www.w3.org/2000/svg">
<g clip-path="url(#clip0)">
<g filter="url(#filter0_d)">
<rect x="61" width="45" height="311" fill="#1C3239"/>
</g>
<line x1="66.5" x2="66.5" y2="311" stroke="white" stroke-dasharray="5 5" style="mix-blend-mode:overlay"/>
<line x1="101.5" x2="101.5" y2="311" stroke="white" stroke-dasharray="5 5" style="mix-blend-mode:overlay"/>
<g filter="url(#filter1_d)">
<path d="M81.1418 78.4661C82.2314 77.6064 83.7686 77.6064 84.8582 78.4661L93.3655 85.1781C94.1856 85.8251 95.2832 85.999 96.2631 85.637L106.428 81.8824C107.73 81.4015 109.192 81.8765 109.963 83.0309L115.979 92.0432C116.559 92.912 117.55 93.4166 118.593 93.3751L129.421 92.9454C130.808 92.8904 132.052 93.7939 132.428 95.1299L135.365 105.56C135.648 106.566 136.434 107.352 137.44 107.635L147.87 110.572C149.206 110.948 150.11 112.192 150.055 113.579L149.625 124.407C149.583 125.45 150.088 126.441 150.957 127.021L159.969 133.037C161.123 133.808 161.598 135.27 161.118 136.572L157.363 146.737C157.001 147.717 157.175 148.814 157.822 149.635L164.534 158.142C165.394 159.231 165.394 160.769 164.534 161.858L157.822 170.365C157.175 171.186 157.001 172.283 157.363 173.263L161.118 183.428C161.598 184.73 161.123 186.192 159.969 186.963L150.957 192.979C150.088 193.559 149.583 194.55 149.625 195.593L150.055 206.421C150.11 207.808 149.206 209.052 147.87 209.428L137.44 212.365C136.434 212.648 135.648 213.434 135.365 214.44L132.428 224.87C132.052 226.206 130.808 227.11 129.421 227.055L118.593 226.625C117.55 226.583 116.559 227.088 115.979 227.957L109.963 236.969C109.192 238.123 107.73 238.598 106.428 238.118L96.2631 234.363C95.2832 234.001 94.1856 234.175 93.3655 234.822L84.8582 241.534C83.7686 242.394 82.2314 242.394 81.1418 241.534L72.6345 234.822C71.8144 234.175 70.7168 234.001 69.7369 234.363L59.5719 238.118C58.2699 238.598 56.808 238.123 56.0374 236.969L50.0206 227.957C49.4406 227.088 48.4504 226.583 47.4066 226.625L36.5789 227.055C35.192 227.11 33.9485 226.206 33.5722 224.87L30.635 214.44C30.3518 213.434 29.566 212.648 28.5605 212.365L18.1299 209.428C16.7939 209.052 15.8904 207.808 15.9454 206.421L16.3751 195.593C16.4166 194.55 15.912 193.559 15.0432 192.979L6.03085 186.963C4.8765 186.192 4.40151 184.73 4.88242 183.428L8.63702 173.263C8.99897 172.283 8.82512 171.186 8.17808 170.365L1.46608 161.858C0.606372 160.769 0.606372 159.231 1.46608 158.142L8.17808 149.635C8.82512 148.814 8.99897 147.717 8.63702 146.737L4.88242 136.572C4.40151 135.27 4.8765 133.808 6.03085 133.037L15.0432 127.021C15.912 126.441 16.4166 125.45 16.3751 124.407L15.9454 113.579C15.8904 112.192 16.7939 110.948 18.1299 110.572L28.5605 107.635C29.566 107.352 30.3518 106.566 30.635 105.56L33.5722 95.1299C33.9485 93.7939 35.192 92.8904 36.5789 92.9454L47.4066 93.3751C48.4504 93.4166 49.4406 92.912 50.0206 92.0432L56.0374 83.0309C56.808 81.8765 58.2699 81.4015 59.5719 81.8824L69.7369 85.637C70.7168 85.999 71.8144 85.8251 72.6345 85.1781L81.1418 78.4661Z" fill="url(#paint0_linear)"/>
<circle cx="83" cy="160" r="68" stroke="white" stroke-width="2"/>
<circle cx="83" cy="160" r="61.5" stroke="white"/>
<path d="M45.1367 169.242C44.6094 169.828 43.8379 170.3 42.8223 170.658C41.8066 171.016 40.6934 171.195 39.4824 171.195C37.6204 171.195 36.1328 170.626 35.0195 169.486C33.9062 168.347 33.3105 166.762 33.2324 164.73L33.2227 163.5C33.2227 162.1 33.4701 160.88 33.9648 159.838C34.4596 158.79 35.166 157.986 36.084 157.426C37.0085 156.859 38.0762 156.576 39.2871 156.576C41.0579 156.576 42.4316 156.983 43.4082 157.797C44.3913 158.604 44.9642 159.812 45.127 161.42H41.8262C41.709 160.626 41.4551 160.059 41.0645 159.721C40.6738 159.382 40.1204 159.213 39.4043 159.213C38.5449 159.213 37.8809 159.577 37.4121 160.307C36.9434 161.036 36.7057 162.077 36.6992 163.432V164.291C36.6992 165.71 36.9401 166.778 37.4219 167.494C37.9102 168.204 38.6751 168.559 39.7168 168.559C40.6087 168.559 41.2728 168.36 41.709 167.963V165.756H39.3262V163.402H45.1367V169.242ZM55.2051 168.344H50.5078L49.6875 171H46.0254L51.2402 156.781H54.4629L59.7168 171H56.0352L55.2051 168.344ZM51.3281 165.697H54.3848L52.8516 160.766L51.3281 165.697ZM66.0449 165.98H64.1895V171H60.7617V156.781H66.3574C68.0436 156.781 69.362 157.156 70.3125 157.904C71.263 158.653 71.7383 159.711 71.7383 161.078C71.7383 162.068 71.5365 162.888 71.1328 163.539C70.7357 164.19 70.1107 164.717 69.2578 165.121L72.2266 170.854V171H68.5547L66.0449 165.98ZM64.1895 163.334H66.3574C67.0085 163.334 67.4967 163.165 67.8223 162.826C68.1543 162.481 68.3203 162.003 68.3203 161.391C68.3203 160.779 68.1543 160.3 67.8223 159.955C67.4902 159.604 67.002 159.428 66.3574 159.428H64.1895V163.334ZM81.8848 168.344H77.1875L76.3672 171H72.7051L77.9199 156.781H81.1426L86.3965 171H82.7148L81.8848 168.344ZM78.0078 165.697H81.0645L79.5312 160.766L78.0078 165.697ZM99.3164 171H95.9082L90.8691 162.152V171H87.4414V156.781H90.8691L95.8984 165.629V156.781H99.3164V171ZM112.354 159.428H108.086V171H104.658V159.428H100.469V156.781H112.354V159.428ZM117.461 171H114.043V156.781H117.461V171ZM128.096 168.344H123.398L122.578 171H118.916L124.131 156.781H127.354L132.607 171H128.926L128.096 168.344ZM124.219 165.697H127.275L125.742 160.766L124.219 165.697Z" fill="#092932"/>
<path d="M55.3672 190.07C55.3672 189.57 55.1901 189.185 54.8359 188.914C54.487 188.643 53.8542 188.37 52.9375 188.094C52.0208 187.818 51.2917 187.51 50.75 187.172C49.7135 186.521 49.1953 185.672 49.1953 184.625C49.1953 183.708 49.5677 182.953 50.3125 182.359C51.0625 181.766 52.0339 181.469 53.2266 181.469C54.0182 181.469 54.724 181.615 55.3438 181.906C55.9635 182.198 56.4505 182.615 56.8047 183.156C57.1589 183.693 57.3359 184.289 57.3359 184.945H55.3672C55.3672 184.352 55.1797 183.888 54.8047 183.555C54.4349 183.216 53.9036 183.047 53.2109 183.047C52.5651 183.047 52.0625 183.185 51.7031 183.461C51.349 183.737 51.1719 184.122 51.1719 184.617C51.1719 185.034 51.3646 185.383 51.75 185.664C52.1354 185.94 52.7708 186.211 53.6562 186.477C54.5417 186.737 55.2526 187.036 55.7891 187.375C56.3255 187.708 56.7188 188.094 56.9688 188.531C57.2188 188.964 57.3438 189.471 57.3438 190.055C57.3438 191.003 56.9792 191.758 56.25 192.32C55.526 192.878 54.5417 193.156 53.2969 193.156C52.474 193.156 51.7161 193.005 51.0234 192.703C50.3359 192.396 49.7995 191.974 49.4141 191.438C49.0339 190.901 48.8438 190.276 48.8438 189.562H50.8203C50.8203 190.208 51.0339 190.708 51.4609 191.062C51.888 191.417 52.5 191.594 53.2969 191.594C53.9844 191.594 54.5 191.456 54.8438 191.18C55.1927 190.898 55.3672 190.529 55.3672 190.07ZM63.9453 193C63.862 192.839 63.7891 192.576 63.7266 192.211C63.1224 192.841 62.3828 193.156 61.5078 193.156C60.6589 193.156 59.9661 192.914 59.4297 192.43C58.8932 191.945 58.625 191.346 58.625 190.633C58.625 189.732 58.9583 189.042 59.625 188.562C60.2969 188.078 61.2552 187.836 62.5 187.836H63.6641V187.281C63.6641 186.844 63.5417 186.495 63.2969 186.234C63.0521 185.969 62.6797 185.836 62.1797 185.836C61.7474 185.836 61.3932 185.945 61.1172 186.164C60.8411 186.378 60.7031 186.651 60.7031 186.984H58.8047C58.8047 186.521 58.9583 186.089 59.2656 185.688C59.5729 185.281 59.9896 184.964 60.5156 184.734C61.0469 184.505 61.638 184.391 62.2891 184.391C63.2786 184.391 64.0677 184.641 64.6562 185.141C65.2448 185.635 65.5469 186.333 65.5625 187.234V191.047C65.5625 191.807 65.6693 192.414 65.8828 192.867V193H63.9453ZM61.8594 191.633C62.2344 191.633 62.5859 191.542 62.9141 191.359C63.2474 191.177 63.4974 190.932 63.6641 190.625V189.031H62.6406C61.9375 189.031 61.4089 189.154 61.0547 189.398C60.7005 189.643 60.5234 189.99 60.5234 190.438C60.5234 190.802 60.6432 191.094 60.8828 191.312C61.1276 191.526 61.4531 191.633 61.8594 191.633ZM69.9297 182.492V184.547H71.4219V185.953H69.9297V190.672C69.9297 190.995 69.9922 191.229 70.1172 191.375C70.2474 191.516 70.4766 191.586 70.8047 191.586C71.0234 191.586 71.2448 191.56 71.4688 191.508V192.977C71.0365 193.096 70.6198 193.156 70.2188 193.156C68.7604 193.156 68.0312 192.352 68.0312 190.742V185.953H66.6406V184.547H68.0312V182.492H69.9297ZM74.8984 193H73V184.547H74.8984V193ZM72.8828 182.352C72.8828 182.06 72.974 181.818 73.1562 181.625C73.3438 181.432 73.6094 181.336 73.9531 181.336C74.2969 181.336 74.5625 181.432 74.75 181.625C74.9375 181.818 75.0312 182.06 75.0312 182.352C75.0312 182.638 74.9375 182.878 74.75 183.07C74.5625 183.258 74.2969 183.352 73.9531 183.352C73.6094 183.352 73.3438 183.258 73.1562 183.07C72.974 182.878 72.8828 182.638 72.8828 182.352ZM81.7109 190.703C81.7109 190.365 81.5703 190.107 81.2891 189.93C81.013 189.753 80.5521 189.596 79.9062 189.461C79.2604 189.326 78.7214 189.154 78.2891 188.945C77.3411 188.487 76.8672 187.823 76.8672 186.953C76.8672 186.224 77.1745 185.615 77.7891 185.125C78.4036 184.635 79.1849 184.391 80.1328 184.391C81.1432 184.391 81.9583 184.641 82.5781 185.141C83.2031 185.641 83.5156 186.289 83.5156 187.086H81.6172C81.6172 186.721 81.4818 186.419 81.2109 186.18C80.9401 185.935 80.5807 185.812 80.1328 185.812C79.7161 185.812 79.375 185.909 79.1094 186.102C78.849 186.294 78.7188 186.552 78.7188 186.875C78.7188 187.167 78.8411 187.393 79.0859 187.555C79.3307 187.716 79.8255 187.88 80.5703 188.047C81.3151 188.208 81.8984 188.404 82.3203 188.633C82.7474 188.857 83.0625 189.128 83.2656 189.445C83.474 189.763 83.5781 190.148 83.5781 190.602C83.5781 191.362 83.263 191.979 82.6328 192.453C82.0026 192.922 81.1771 193.156 80.1562 193.156C79.4635 193.156 78.8464 193.031 78.3047 192.781C77.763 192.531 77.3411 192.188 77.0391 191.75C76.737 191.312 76.5859 190.841 76.5859 190.336H78.4297C78.4557 190.784 78.625 191.13 78.9375 191.375C79.25 191.615 79.6641 191.734 80.1797 191.734C80.6797 191.734 81.0599 191.641 81.3203 191.453C81.5807 191.26 81.7109 191.01 81.7109 190.703ZM85.9062 193V185.953H84.6172V184.547H85.9062V183.773C85.9062 182.836 86.1667 182.112 86.6875 181.602C87.2083 181.091 87.9375 180.836 88.875 180.836C89.2083 180.836 89.5625 180.883 89.9375 180.977L89.8906 182.461C89.6823 182.419 89.4401 182.398 89.1641 182.398C88.2578 182.398 87.8047 182.865 87.8047 183.797V184.547H89.5234V185.953H87.8047V193H85.9062ZM95.9609 193C95.8776 192.839 95.8047 192.576 95.7422 192.211C95.138 192.841 94.3984 193.156 93.5234 193.156C92.6745 193.156 91.9818 192.914 91.4453 192.43C90.9089 191.945 90.6406 191.346 90.6406 190.633C90.6406 189.732 90.974 189.042 91.6406 188.562C92.3125 188.078 93.2708 187.836 94.5156 187.836H95.6797V187.281C95.6797 186.844 95.5573 186.495 95.3125 186.234C95.0677 185.969 94.6953 185.836 94.1953 185.836C93.763 185.836 93.4089 185.945 93.1328 186.164C92.8568 186.378 92.7188 186.651 92.7188 186.984H90.8203C90.8203 186.521 90.974 186.089 91.2812 185.688C91.5885 185.281 92.0052 184.964 92.5312 184.734C93.0625 184.505 93.6536 184.391 94.3047 184.391C95.2943 184.391 96.0833 184.641 96.6719 185.141C97.2604 185.635 97.5625 186.333 97.5781 187.234V191.047C97.5781 191.807 97.6849 192.414 97.8984 192.867V193H95.9609ZM93.875 191.633C94.25 191.633 94.6016 191.542 94.9297 191.359C95.263 191.177 95.513 190.932 95.6797 190.625V189.031H94.6562C93.9531 189.031 93.4245 189.154 93.0703 189.398C92.7161 189.643 92.5391 189.99 92.5391 190.438C92.5391 190.802 92.6589 191.094 92.8984 191.312C93.1432 191.526 93.4688 191.633 93.875 191.633ZM103.039 191.641C103.513 191.641 103.906 191.503 104.219 191.227C104.531 190.951 104.698 190.609 104.719 190.203H106.508C106.487 190.729 106.323 191.221 106.016 191.68C105.708 192.133 105.292 192.492 104.766 192.758C104.24 193.023 103.672 193.156 103.062 193.156C101.88 193.156 100.943 192.773 100.25 192.008C99.5573 191.242 99.2109 190.185 99.2109 188.836V188.641C99.2109 187.354 99.5547 186.326 100.242 185.555C100.93 184.779 101.867 184.391 103.055 184.391C104.06 184.391 104.878 184.685 105.508 185.273C106.143 185.857 106.477 186.625 106.508 187.578H104.719C104.698 187.094 104.531 186.695 104.219 186.383C103.911 186.07 103.518 185.914 103.039 185.914C102.424 185.914 101.951 186.138 101.617 186.586C101.284 187.029 101.115 187.703 101.109 188.609V188.914C101.109 189.831 101.273 190.516 101.602 190.969C101.935 191.417 102.414 191.641 103.039 191.641ZM103.555 193.016L103.469 193.438C104.25 193.578 104.641 194.029 104.641 194.789C104.641 195.336 104.417 195.763 103.969 196.07C103.521 196.378 102.893 196.531 102.086 196.531L102.031 195.461C102.375 195.461 102.638 195.398 102.82 195.273C103.008 195.154 103.102 194.984 103.102 194.766C103.102 194.531 103.008 194.367 102.82 194.273C102.638 194.185 102.339 194.128 101.922 194.102L102.172 193.016H103.555ZM112.992 193C112.909 192.839 112.836 192.576 112.773 192.211C112.169 192.841 111.43 193.156 110.555 193.156C109.706 193.156 109.013 192.914 108.477 192.43C107.94 191.945 107.672 191.346 107.672 190.633C107.672 189.732 108.005 189.042 108.672 188.562C109.344 188.078 110.302 187.836 111.547 187.836H112.711V187.281C112.711 186.844 112.589 186.495 112.344 186.234C112.099 185.969 111.727 185.836 111.227 185.836C110.794 185.836 110.44 185.945 110.164 186.164C109.888 186.378 109.75 186.651 109.75 186.984H107.852C107.852 186.521 108.005 186.089 108.312 185.688C108.62 185.281 109.036 184.964 109.562 184.734C110.094 184.505 110.685 184.391 111.336 184.391C112.326 184.391 113.115 184.641 113.703 185.141C114.292 185.635 114.594 186.333 114.609 187.234V191.047C114.609 191.807 114.716 192.414 114.93 192.867V193H112.992ZM110.906 191.633C111.281 191.633 111.633 191.542 111.961 191.359C112.294 191.177 112.544 190.932 112.711 190.625V189.031H111.688C110.984 189.031 110.456 189.154 110.102 189.398C109.747 189.643 109.57 189.99 109.57 190.438C109.57 190.802 109.69 191.094 109.93 191.312C110.174 191.526 110.5 191.633 110.906 191.633ZM114.266 181.172C114.266 181.745 114.099 182.221 113.766 182.602C113.438 182.982 113.023 183.172 112.523 183.172C112.32 183.172 112.143 183.151 111.992 183.109C111.846 183.062 111.635 182.961 111.359 182.805C111.089 182.648 110.896 182.555 110.781 182.523C110.672 182.492 110.549 182.477 110.414 182.477C110.216 182.477 110.047 182.552 109.906 182.703C109.771 182.849 109.703 183.042 109.703 183.281L108.539 183.219C108.539 182.646 108.703 182.164 109.031 181.773C109.365 181.383 109.779 181.188 110.273 181.188C110.57 181.188 110.927 181.305 111.344 181.539C111.766 181.773 112.112 181.891 112.383 181.891C112.581 181.891 112.75 181.818 112.891 181.672C113.031 181.521 113.102 181.323 113.102 181.078L114.266 181.172ZM116.242 188.695C116.242 187.867 116.406 187.122 116.734 186.461C117.062 185.794 117.523 185.284 118.117 184.93C118.711 184.57 119.393 184.391 120.164 184.391C121.305 184.391 122.229 184.758 122.938 185.492C123.651 186.227 124.036 187.201 124.094 188.414L124.102 188.859C124.102 189.693 123.94 190.438 123.617 191.094C123.299 191.75 122.841 192.258 122.242 192.617C121.648 192.977 120.961 193.156 120.18 193.156C118.987 193.156 118.031 192.76 117.312 191.969C116.599 191.172 116.242 190.112 116.242 188.789V188.695ZM118.141 188.859C118.141 189.729 118.32 190.411 118.68 190.906C119.039 191.396 119.539 191.641 120.18 191.641C120.82 191.641 121.318 191.391 121.672 190.891C122.031 190.391 122.211 189.659 122.211 188.695C122.211 187.841 122.026 187.164 121.656 186.664C121.292 186.164 120.794 185.914 120.164 185.914C119.544 185.914 119.052 186.161 118.688 186.656C118.323 187.146 118.141 187.88 118.141 188.859Z" fill="white"/>
<path d="M64.7168 145H60.0957V130.289L55.5566 131.615V128.115L64.293 125.094H64.7168V145ZM84.541 136.865C84.541 139.554 83.9349 141.628 82.7227 143.086C81.5195 144.544 79.8197 145.273 77.623 145.273C75.4082 145.273 73.6947 144.54 72.4824 143.072C71.2702 141.605 70.6641 139.536 70.6641 136.865V133.229C70.6641 130.54 71.2656 128.466 72.4688 127.008C73.681 125.549 75.39 124.82 77.5957 124.82C79.8014 124.82 81.5104 125.554 82.7227 127.021C83.9349 128.489 84.541 130.562 84.541 133.242V136.865ZM79.9336 132.641C79.9336 131.21 79.7467 130.143 79.373 129.441C78.9993 128.73 78.4069 128.375 77.5957 128.375C76.8027 128.375 76.224 128.703 75.8594 129.359C75.5039 130.016 75.3125 131.009 75.2852 132.34V137.426C75.2852 138.911 75.472 140.001 75.8457 140.693C76.2194 141.377 76.8118 141.719 77.623 141.719C78.4069 141.719 78.9857 141.386 79.3594 140.721C79.7331 140.046 79.9245 138.993 79.9336 137.562V132.641ZM100.756 136.865C100.756 139.554 100.15 141.628 98.9375 143.086C97.7344 144.544 96.0345 145.273 93.8379 145.273C91.623 145.273 89.9095 144.54 88.6973 143.072C87.485 141.605 86.8789 139.536 86.8789 136.865V133.229C86.8789 130.54 87.4805 128.466 88.6836 127.008C89.8958 125.549 91.6048 124.82 93.8105 124.82C96.0163 124.82 97.7253 125.554 98.9375 127.021C100.15 128.489 100.756 130.562 100.756 133.242V136.865ZM96.1484 132.641C96.1484 131.21 95.9616 130.143 95.5879 129.441C95.2142 128.73 94.6217 128.375 93.8105 128.375C93.0176 128.375 92.4388 128.703 92.0742 129.359C91.7188 130.016 91.5273 131.009 91.5 132.34V137.426C91.5 138.911 91.6868 140.001 92.0605 140.693C92.4342 141.377 93.0267 141.719 93.8379 141.719C94.6217 141.719 95.2005 141.386 95.5742 140.721C95.9479 140.046 96.1393 138.993 96.1484 137.562V132.641ZM103.162 128.922C103.162 127.691 103.563 126.698 104.365 125.941C105.167 125.185 106.243 124.807 107.592 124.807C108.959 124.807 110.039 125.185 110.832 125.941C111.625 126.689 112.021 127.705 112.021 128.99V129.975C112.021 131.205 111.625 132.194 110.832 132.941C110.039 133.689 108.968 134.062 107.619 134.062C106.279 134.062 105.199 133.693 104.379 132.955C103.568 132.208 103.162 131.187 103.162 129.893V128.922ZM106.129 129.975C106.129 130.449 106.261 130.836 106.525 131.137C106.79 131.428 107.154 131.574 107.619 131.574C108.576 131.574 109.055 130.964 109.055 129.742V128.922C109.055 128.448 108.927 128.061 108.672 127.76C108.417 127.45 108.057 127.295 107.592 127.295C107.145 127.295 106.79 127.445 106.525 127.746C106.261 128.038 106.129 128.439 106.129 128.949V129.975ZM112.623 140.119C112.623 138.88 113.024 137.886 113.826 137.139C114.637 136.391 115.713 136.018 117.053 136.018C118.411 136.018 119.491 136.387 120.293 137.125C121.095 137.863 121.496 138.893 121.496 140.215V141.172C121.496 142.411 121.1 143.405 120.307 144.152C119.514 144.9 118.438 145.273 117.08 145.273C115.74 145.273 114.66 144.904 113.84 144.166C113.029 143.419 112.623 142.398 112.623 141.104V140.119ZM115.576 141.172C115.576 141.6 115.722 141.979 116.014 142.307C116.305 142.626 116.661 142.785 117.08 142.785C117.964 142.785 118.443 142.366 118.516 141.527L118.529 140.119C118.529 139.636 118.397 139.249 118.133 138.957C117.868 138.656 117.508 138.506 117.053 138.506C116.615 138.506 116.264 138.647 116 138.93C115.736 139.203 115.594 139.577 115.576 140.051V141.172ZM108.494 143.51L106.348 142.43L116.068 126.871L118.215 127.951L108.494 143.51Z" fill="white"/>
</g>
</g>
<defs>
<filter id="filter0_d" x="61" y="0" width="48" height="311" filterUnits="userSpaceOnUse" color-interpolation-filters="sRGB">
<feFlood flood-opacity="0" result="BackgroundImageFix"/>
<feColorMatrix in="SourceAlpha" type="matrix" values="0 0 0 0 0 0 0 0 0 0 0 0 0 0 0 0 0 0 127 0"/>
<feOffset dx="3"/>
<feColorMatrix type="matrix" values="0 0 0 0 0 0 0 0 0 0 0 0 0 0 0 0 0 0 0.25 0"/>
<feBlend mode="normal" in2="BackgroundImageFix" result="effect1_dropShadow"/>
<feBlend mode="normal" in="SourceGraphic" in2="effect1_dropShadow" result="shape"/>
</filter>
<filter id="filter1_d" x="0.821289" y="77.8213" width="167.357" height="167.357" filterUnits="userSpaceOnUse" color-interpolation-filters="sRGB">
<feFlood flood-opacity="0" result="BackgroundImageFix"/>
<feColorMatrix in="SourceAlpha" type="matrix" values="0 0 0 0 0 0 0 0 0 0 0 0 0 0 0 0 0 0 127 0"/>
<feOffset dx="3" dy="3"/>
<feColorMatrix type="matrix" values="0 0 0 0 0 0 0 0 0 0 0 0 0 0 0 0 0 0 0.25 0"/>
<feBlend mode="normal" in2="BackgroundImageFix" result="effect1_dropShadow"/>
<feBlend mode="normal" in="SourceGraphic" in2="effect1_dropShadow" result="shape"/>
</filter>
<linearGradient id="paint0_linear" x1="33" y1="99" x2="134.5" y2="234" gradientUnits="userSpaceOnUse">
<stop stop-color="#42AEE3"/>
<stop offset="1" stop-color="#0082C2"/>
</linearGradient>
<clipPath id="clip0">
<rect width="168" height="311" fill="white"/>
</clipPath>
</defs>
</svg>
